<svg width="578" height="200" viewBox="0 0 578 200" fill="none" xmlns="http://www.w3.org/2000/svg">
<path d="M88.6931 52.003C101.89 52.003 112.275 59.417 113.678 70.253H133.069C130.406 49.898 112.435 36 88.7102 36C63.0462 36 40 52.847 40 86.256C40 119.665 62.5957 136.511 88.7102 136.511C112.857 136.511 130.822 122.619 132.789 102.259H114.254C112.544 112.929 102.181 120.372 88.7045 120.372C71.5952 120.372 58.6606 108.578 58.6606 86.256C58.6606 63.934 71.5667 52.003 88.6931 52.003Z" fill="white"/>
<path d="M170.356 63.49C151.969 63.49 140.038 74.439 139.194 88.475H154.638C154.918 82.161 160.393 76.401 169.517 76.401C178.642 76.401 183.975 81.317 183.975 88.195C183.975 91.001 182.292 92.969 178.779 92.969H165.725C149.865 92.969 139.194 101.523 139.194 115.291C139.194 127.501 148.741 136.484 162.776 136.484C172.882 136.484 181.026 131.853 183.975 124.838V135.366H200.942V89.878C200.942 73.875 188.326 63.49 170.356 63.49ZM183.975 105.464C183.975 116.135 177.662 123.714 166.866 123.714C160.41 123.714 155.916 120.07 155.916 114.589C155.916 108.407 160.832 104.324 168.132 104.324H183.992L183.975 105.464Z" fill="white"/>
<path d="M251.762 63.49C242.357 63.49 234.653 67.419 230.421 73.453V64.613H213.312V164.001H230.421V127.638C234.356 133.119 241.935 136.489 250.501 136.489C271.272 136.489 284.612 121.604 284.612 99.989C284.612 78.375 272.116 63.49 251.762 63.49ZM248.534 121.581C236.882 121.581 229.303 113.027 229.303 99.967C229.303 86.906 236.882 78.346 248.534 78.346C259.906 78.346 267.485 86.901 267.485 99.967C267.485 113.032 259.906 121.581 248.534 121.581Z" fill="white"/>
<path d="M317.747 43.272H300.478V64.608H286.585V79.071H300.478V110.655C300.478 126.378 310.589 135.366 326.033 135.366H337.4V119.78H327.995C321.539 119.78 317.73 116.13 317.73 108.944V79.071H337.383V64.608H317.747V43.272Z" fill="white"/>
<path d="M392.931 103.218C392.931 113.604 386.195 121.189 376.506 121.189C367.666 121.189 361.769 114.448 361.769 104.758V64.608H344.5V108.408C344.5 124.976 354.891 136.484 370.894 136.484C381 136.484 389.007 132.133 392.931 124.417V135.367H410.2V64.608H392.931V103.218Z" fill="white"/>
<path d="M440.056 77.0981V64.608H422.792V135.367H440.061V101.952C440.061 88.4761 444.413 79.071 455.363 79.071H466.455V64.614H458.151C449.027 64.614 443.563 68.1211 440.056 77.0981Z" fill="white"/>
<path d="M504.061 122.152C493.117 122.152 485.812 114.852 484.551 103.48H536.774C536.911 102.077 537.054 99.973 537.054 97.583C537.054 80.736 526.383 63.473 502.659 63.473C479.498 63.473 467.984 81.015 467.984 99.687C467.984 118.217 480.901 136.467 504.061 136.467C521.473 136.467 534.664 126.771 537.333 111.761H520.486C518.667 118.519 512.901 122.152 504.061 122.152ZM502.636 76.402C512.901 76.402 519.061 83.143 519.745 92.125H484.956C486.798 81.455 492.975 76.402 502.636 76.402Z" fill="white"/>
</svg>
