<svg width="55" height="55" viewBox="0 0 55 55" fill="none" xmlns="http://www.w3.org/2000/svg">
<g clip-path="url(#clip0_148_657)">
<path fill-rule="evenodd" clip-rule="evenodd" d="M43.2098 54.4567H13.2401C6.47598 54.4567 1.00001 48.9738 1.00001 42.2166V12.24C0.993111 5.48287 6.47598 0 13.2401 0H43.2098C49.9738 0 55.4499 5.48287 55.4499 12.24V42.2098C55.4499 48.9738 49.9738 54.4567 43.2098 54.4567Z" fill="#D4CEB9"/>
<path d="M42.8408 13.4904C39.9183 10.5774 36.1415 8.67119 32.0596 8.04903C27.9776 7.42686 23.8034 8.12116 20.1438 10.031C16.4842 11.9408 13.5299 14.9666 11.7105 18.6684C9.89112 22.3702 9.30146 26.555 10.0273 30.6146C10.7531 34.6741 12.7565 38.3966 15.7463 41.2408C18.7361 44.0851 22.5563 45.9028 26.6517 46.4298C30.7471 46.9567 34.9039 46.1654 38.518 44.1709C42.132 42.1763 45.0149 39.0826 46.7474 35.3395L40.6107 32.5113C39.4001 35.1338 37.3284 37.2644 34.7392 38.55C32.1499 39.8357 29.1986 40.1992 26.3741 39.5803C23.5496 38.9613 21.0218 37.3972 19.2094 35.1469C17.3969 32.8968 16.4089 30.0956 16.4089 27.2079C16.4089 24.32 17.3969 21.5189 19.2094 19.2688C21.0218 17.0186 23.5496 15.4545 26.3741 14.8355C29.1986 14.2166 32.1499 14.5801 34.7392 15.8657C37.3284 17.1514 39.4001 19.282 40.6107 21.9045L46.7474 19.0746C45.7847 16.998 44.4622 15.1076 42.8408 13.4904Z" fill="white"/>
<path d="M33.2845 23.0741C32.3893 22.1967 31.2325 21.6226 29.9823 21.4354C28.7321 21.2481 27.4537 21.4575 26.333 22.0329C25.2123 22.6084 24.3076 23.5201 23.7504 24.6354C23.1933 25.7507 23.0128 27.0114 23.2352 28.2344C23.4576 29.4574 24.0712 30.5787 24.9868 31.4356C25.9025 32.2924 27.0725 32.8401 28.3267 32.9988C29.581 33.1577 30.8541 32.9193 31.961 32.3185C33.0678 31.7177 33.9509 30.7857 34.4815 29.6581L40.5999 32.4326C41.3758 30.7963 41.778 29.013 41.778 27.2077C41.778 25.4026 41.3758 23.6193 40.5999 21.983L34.4815 24.7574C34.1866 24.1314 33.7813 23.5615 33.2845 23.0741Z" fill="white"/>
</g>
<defs>
<clipPath id="clip0_148_657">
<rect width="54.45" height="54.45" fill="white"/>
</clipPath>
</defs>
</svg>
