<svg width="578" height="200" viewBox="0 0 578 200" fill="none" xmlns="http://www.w3.org/2000/svg">
<path d="M57 141.043V58.134H74.53V126.591H110.07V141.043H57ZM139.21 58.134V141.043H121.68V58.134H139.21ZM153.63 141.043V58.134H208.52V72.586H171.16V92.342H204.88V106.794H171.16V141.043H153.63ZM220.31 141.043V58.134H276.18V72.586H237.84V92.342H273.31V106.794H237.84V126.591H276.34V141.043H220.31ZM290.12 141.043V58.134H323.31C329.41 58.134 334.5 59.038 338.58 60.846C342.65 62.655 345.71 65.164 347.76 68.376C349.82 71.561 350.84 75.231 350.84 79.387C350.84 82.626 350.19 85.473 348.9 87.929C347.6 90.358 345.82 92.355 343.55 93.921C341.31 95.459 338.75 96.552 335.86 97.2V98.01C339.02 98.145 341.98 99.035 344.73 100.681C347.51 102.328 349.76 104.635 351.49 107.604C353.22 110.546 354.08 114.054 354.08 118.13C354.08 122.529 352.99 126.456 350.8 129.91C348.64 133.338 345.44 136.05 341.21 138.047C336.97 140.044 331.75 141.043 325.54 141.043H290.12ZM307.65 126.712H321.94C326.82 126.712 330.38 125.781 332.62 123.919C334.86 122.03 335.98 119.52 335.98 116.389C335.98 114.095 335.43 112.071 334.32 110.316C333.22 108.562 331.64 107.186 329.59 106.187C327.56 105.189 325.15 104.689 322.34 104.689H307.65V126.712ZM307.65 92.828H320.64C323.04 92.828 325.18 92.409 327.04 91.573C328.93 90.709 330.41 89.495 331.49 87.929C332.6 86.364 333.15 84.488 333.15 82.302C333.15 79.306 332.08 76.891 329.95 75.056C327.85 73.221 324.85 72.303 320.97 72.303H307.65V92.828ZM441.68 99.588C441.68 108.63 439.96 116.321 436.53 122.664C433.13 129.006 428.49 133.851 422.61 137.197C416.75 140.517 410.17 142.177 402.85 142.177C395.48 142.177 388.87 140.503 383.02 137.157C377.16 133.81 372.53 128.966 369.13 122.623C365.73 116.281 364.03 108.603 364.03 99.588C364.03 90.547 365.73 82.855 369.13 76.513C372.53 70.171 377.16 65.34 383.02 62.02C388.87 58.674 395.48 57 402.85 57C410.17 57 416.75 58.674 422.61 62.02C428.49 65.34 433.13 70.171 436.53 76.513C439.96 82.855 441.68 90.547 441.68 99.588ZM423.9 99.588C423.9 93.732 423.03 88.793 421.27 84.772C419.54 80.75 417.1 77.701 413.94 75.623C410.79 73.544 407.09 72.505 402.85 72.505C398.61 72.505 394.92 73.544 391.76 75.623C388.6 77.701 386.15 80.75 384.39 84.772C382.66 88.793 381.8 93.732 381.8 99.588C381.8 105.445 382.66 110.384 384.39 114.405C386.15 118.427 388.6 121.476 391.76 123.554C394.92 125.632 398.61 126.672 402.85 126.672C407.09 126.672 410.79 125.632 413.94 123.554C417.1 121.476 419.54 118.427 421.27 114.405C423.03 110.384 423.9 105.445 423.9 99.588ZM467.2 58.134L483.92 86.391H484.57L501.37 58.134H521.16L495.86 99.588L521.73 141.043H501.57L484.57 112.745H483.92L466.92 141.043H446.84L472.79 99.588L447.32 58.134H467.2Z" fill="white"/>
</svg>
