<svg width="56" height="55" viewBox="0 0 56 55" fill="none" xmlns="http://www.w3.org/2000/svg">
<g clip-path="url(#clip0_148_671)">
<path fill-rule="evenodd" clip-rule="evenodd" d="M43.1226 54.4519H13.1546C6.39185 54.4519 0.916023 48.9695 0.916023 42.2129V12.2389C0.90857 5.48238 6.39185 0 13.1546 0H43.1226C49.8854 0 55.3612 5.48238 55.3612 12.2389V42.2061C55.3612 48.9695 49.8854 54.4519 43.1226 54.4519Z" fill="#D4CEB9"/>
<path d="M16.2243 23.0386C15.9845 13.1212 20.7138 4.59265 27.0691 3.47588C33.4257 2.35911 39.2655 9.03191 40.4593 18.7828H42.1984L38.9264 22.322L35.2096 18.7828H36.9475C35.9201 11.0376 31.7474 5.9372 27.2977 6.98173C22.8467 8.02628 19.5684 14.8824 19.7138 22.8332L16.2243 23.0386Z" fill="white"/>
<path d="M11.7239 20.594C11.7239 17.9271 13.8903 15.7603 16.5574 15.7603H39.8098C41.0931 15.7603 42.3204 16.2713 43.226 17.177C44.1329 18.0826 44.6434 19.3105 44.6434 20.594V39.929C44.6434 42.6015 42.4769 44.7627 39.8098 44.7627H16.5574C13.8903 44.7627 11.7239 42.6015 11.7239 39.929V20.594Z" fill="white"/>
<path d="M21.0417 27.761C21.0417 23.8163 24.2418 20.6216 28.1809 20.6216C30.0754 20.6216 31.8915 21.3717 33.2307 22.7107C34.5698 24.0496 35.3251 25.8665 35.3251 27.761C35.3251 31.7058 32.1251 34.9006 28.1859 34.9006C24.2418 34.9006 21.0417 31.7058 21.0417 27.761Z" stroke="#D4CEB9" stroke-width="2.48449" stroke-miterlimit="10"/>
<path d="M28.186 44.1017V26.189" stroke="#D4CEB9" stroke-width="2.48449" stroke-miterlimit="10" stroke-linecap="round" stroke-linejoin="round"/>
<path d="M27.9972 30.0391L25.5525 28.7778" stroke="#D4CEB9" stroke-width="2.48449" stroke-miterlimit="10" stroke-linecap="round" stroke-linejoin="round"/>
<path d="M28.5474 31.2783L30.9921 30.0171" stroke="#D4CEB9" stroke-width="2.48449" stroke-miterlimit="10" stroke-linecap="round" stroke-linejoin="round"/>
<path d="M15.0963 50.119V50.9468H12.4565V47.0576H13.4454V50.119H15.0963Z" fill="white"/>
<path d="M16.8582 50.9468V47.0576H17.847V50.9468H16.8582Z" fill="white"/>
<path d="M20.9029 47.8354V48.7355H22.647V49.5134H20.9029V50.9468H19.9141V47.0576H22.7973V47.8354H20.9029Z" fill="white"/>
<path d="M25.5477 47.8354V48.6077H27.4036V49.3856H25.5477V50.1689H27.6645V50.9468H24.5588V47.0576H27.6036V47.8354H25.5477Z" fill="white"/>
<path d="M31.4305 47.0576C32.3026 47.0576 32.8591 47.4354 32.8591 48.0299C32.8591 48.4411 32.6032 48.7688 32.1921 48.8856C32.6815 48.98 32.9921 49.3634 32.9921 49.8689C32.9921 50.5301 32.4144 50.9468 31.4976 50.9468H29.592V47.0576H31.4305ZM30.5746 48.6133H31.3746C31.6641 48.6133 31.8479 48.4578 31.8479 48.2077C31.8479 47.9576 31.6641 47.8133 31.3746 47.8133H30.5746V48.6133ZM30.5746 50.1856H31.3746C31.7424 50.1856 31.9697 50.0245 31.9697 49.7467C31.9697 49.4856 31.7424 49.3245 31.3746 49.3245H30.5746V50.1856Z" fill="white"/>
<path d="M38.8034 48.9967C38.8034 50.1302 37.904 50.9914 36.6978 50.9914C35.4978 50.9914 34.5984 50.1357 34.5984 48.9967C34.5984 47.8633 35.4978 47.0244 36.6978 47.0244C37.904 47.0244 38.8034 47.8689 38.8034 48.9967ZM35.6096 49.0023C35.6096 49.6579 36.1152 50.1636 36.709 50.1636C37.309 50.1636 37.7873 49.6579 37.7873 49.0023C37.7873 48.3467 37.309 47.8522 36.709 47.8522C36.109 47.8522 35.6096 48.3467 35.6096 49.0023Z" fill="white"/>
<path d="M44.2656 50.9468H43.0817L42.2432 49.7078L41.4035 50.9468H40.2544L41.6432 48.9578L40.3426 47.0576H41.4929L42.2432 48.191L42.9936 47.0576H44.1538L42.8706 48.9133L44.2656 50.9468Z" fill="white"/>
</g>
<defs>
<clipPath id="clip0_148_671">
<rect width="54.4452" height="54.4452" fill="white" transform="translate(0.916016)"/>
</clipPath>
</defs>
</svg>
