<svg width="439" height="439" viewBox="0 0 439 439" fill="none" xmlns="http://www.w3.org/2000/svg">
<g clip-path="url(#clip0_2_81)">
<path fill-rule="evenodd" clip-rule="evenodd" d="M339.76 438.334H98.5231C44.0771 438.334 5.13524e-05 394.201 5.13524e-05 339.811V98.5226C-0.0549486 44.1328 44.0771 0 98.5231 0H339.76C394.2 0 438.28 44.1328 438.28 98.5226V339.756C438.28 394.201 394.2 438.334 339.76 438.334Z" fill="white"/>
<path d="M181.719 215.49L181.489 120.031L149.055 199.616H117.772L85.3391 120.031V215.49H43.2471V54.2446H94.5421L133.414 143.494L172.288 54.2451H223.582V215.49H181.719Z" fill="#F9AD35"/>
<path d="M325.71 226.071C315.82 250.684 298.8 262.184 273.73 262.184C258.317 262.184 245.896 257.814 233.474 248.384L252.796 217.331C258.548 222.391 263.38 224.461 269.59 224.461C275.8 224.461 280.4 221.931 283.16 216.41L285.46 212.04L233.703 90.3582H281.32L308.69 166.956L331.92 90.3582H378.16L325.71 226.071Z" fill="#F9AD35"/>
<path d="M144.313 331.245V366.267H43.2739V225.175H85.1389V331.245H144.313Z" fill="#52C7F4"/>
<path d="M395.7 356.806C395.7 387.602 371.34 407.125 335.52 407.125C315.19 407.125 296.87 400.684 285 392.835L298.48 365.462C308.14 371.902 320.82 375.523 332.09 375.523C346.79 375.523 355.44 368.68 355.44 358.012V346.945C348.4 355.398 338.53 360.027 326.05 360.027C299.49 360.027 280.16 339.094 280.16 307.092C280.16 275.893 298.88 255.365 325.25 255.365C338.13 255.365 348.4 260.196 355.44 268.649V256.774H395.69L395.7 356.806ZM355.44 308.3C355.44 294.412 347.99 285.355 336.72 285.355C325.66 285.355 318.2 294.614 318.2 308.3C318.2 321.785 325.65 330.842 336.72 330.842C347.99 330.842 355.44 321.785 355.44 308.3Z" fill="#52C7F4"/>
<path d="M341.4 252.524V221.761H334.21V212.214H353.41V252.526L341.4 252.524Z" fill="#8E9091"/>
<path d="M378.95 235.503V227.394H390.05V235.503H395.34V244.3H390.05V252.524H378.95V244.3H359.91V236.364L372.1 212.212H383.55L372.1 235.503H378.95Z" fill="#8E9091"/>
<path d="M226.796 285.587C228.36 286.897 242.592 298.712 242.592 311.623C242.592 326.315 232.824 340.928 217.21 342.451C210.677 343.088 207.842 342.887 201.088 340.381C187.759 335.436 183.511 322.272 183.114 319.575C179.955 298.115 196.488 289.03 198.691 286.241C199.708 291.76 197.674 280.721 198.691 286.241C202.758 273.895 190.594 278.979 194.661 266.633C181.589 259.37 198.8 267.141 185.728 259.879C189.069 264.381 182.387 255.376 185.728 259.879C180.848 261.589 170.549 265.957 162.188 276.32C150.926 290.279 150.75 305.743 150.75 311.521C150.75 345.334 174.903 367.675 211.736 367.675C248.568 367.675 272.52 345.334 272.52 311.521C272.52 282.989 260.24 270.554 238.514 260.002" fill="#52C7F4"/>
<path d="M205.01 308.79L221.35 255.739L172.874 243.648" fill="#F9AD35"/>
</g>
<defs>
<clipPath id="clip0_2_81">
<rect width="438.28" height="438.28" fill="white"/>
</clipPath>
</defs>
</svg>
