<svg width="55" height="55" viewBox="0 0 55 55" fill="none" xmlns="http://www.w3.org/2000/svg">
<g clip-path="url(#clip0_148_661)">
<path fill-rule="evenodd" clip-rule="evenodd" d="M42.4839 54.4519H12.5163C5.7528 54.4519 0.27735 48.9695 0.27735 42.2129V12.2389C0.270518 5.48238 5.7528 0 12.5163 0H42.4839C49.2467 0 54.7225 5.48238 54.7225 12.2389V42.2061C54.7225 48.9695 49.2467 54.4519 42.4839 54.4519Z" fill="#D4CEB9"/>
<path d="M22.8513 26.7689L22.8227 14.9106L18.7936 24.797H14.9075L10.8785 14.9106V26.7689H5.64966V6.73828H12.0218L16.8506 17.8253L21.6797 6.73834H28.0517V26.7689H22.8513Z" fill="white"/>
<path d="M40.7387 28.0835C39.5102 31.141 37.3959 32.5696 34.2815 32.5696C32.3669 32.5696 30.8239 32.0267 29.2808 30.8553L31.681 26.9978C32.3956 27.6263 32.9958 27.8835 33.7673 27.8835C34.5387 27.8835 35.1101 27.5692 35.453 26.8834L35.7387 26.3405L29.3092 11.2246H35.2244L38.6244 20.7399L41.5102 11.2246H47.2543L40.7387 28.0835Z" fill="white"/>
<path d="M18.2046 41.1487V45.4993H5.65308V27.9722H10.8537V41.1487H18.2046Z" fill="white"/>
<path d="M49.433 44.3241C49.433 48.1498 46.4069 50.575 41.9572 50.575C39.4317 50.575 37.1559 49.7749 35.6813 48.7998L37.3559 45.3994C38.5559 46.1994 40.1311 46.6492 41.5311 46.6492C43.3572 46.6492 44.4317 45.7992 44.4317 44.4739V43.0992C43.5572 44.1492 42.3311 44.7243 40.7808 44.7243C37.4814 44.7243 35.0801 42.1239 35.0801 38.1484C35.0801 34.2727 37.4056 31.7227 40.6814 31.7227C42.2814 31.7227 43.5572 32.3228 44.4317 33.3729V31.8977H49.4317L49.433 44.3241ZM44.4317 38.2985C44.4317 36.5733 43.5062 35.4482 42.1062 35.4482C40.7323 35.4482 39.8056 36.5983 39.8056 38.2985C39.8056 39.9737 40.7311 41.0988 42.1062 41.0988C43.5062 41.0988 44.4317 39.9737 44.4317 38.2985Z" fill="white"/>
<path d="M42.6876 31.3693V27.5478H41.7944V26.3618H44.1796V31.3696L42.6876 31.3693Z" fill="white"/>
<path d="M47.3523 29.2551V28.2478H48.7312V29.2551H49.3883V30.3479H48.7312V31.3696H47.3523V30.3479H44.9871V29.3621L46.5014 26.3618H47.9237L46.5014 29.2551H47.3523Z" fill="white"/>
<path d="M28.4509 35.4771C28.6452 35.6399 30.4132 37.1076 30.4132 38.7114C30.4132 40.5366 29.1998 42.3518 27.2601 42.541C26.4486 42.6202 26.0964 42.5952 25.2574 42.2839C23.6016 41.6696 23.0739 40.0343 23.0246 39.6993C22.6321 37.0334 24.6859 35.9048 24.9596 35.5584C25.0859 36.244 24.8333 34.8727 24.9596 35.5584C25.4648 34.0247 23.9538 34.6563 24.459 33.1226C22.8351 32.2203 24.9731 33.1857 23.3493 32.2836C23.7643 32.8428 22.9342 31.7242 23.3493 32.2836C22.7431 32.496 21.4637 33.0386 20.425 34.3259C19.026 36.06 19.0042 37.981 19.0042 38.6988C19.0042 42.8992 22.0046 45.6745 26.5801 45.6745C31.1556 45.6745 34.131 42.8992 34.131 38.6988C34.131 35.1544 32.6055 33.6097 29.9066 32.2988" fill="white"/>
<path d="M25.7448 38.3593L27.7746 31.7691L21.7527 30.2671" fill="white"/>
</g>
<defs>
<clipPath id="clip0_148_661">
<rect width="54.4452" height="54.4452" fill="white" transform="translate(0.277344)"/>
</clipPath>
</defs>
</svg>
