<svg width="578" height="200" viewBox="0 0 578 200" fill="none" xmlns="http://www.w3.org/2000/svg">
<path d="M251.164 20V85.6509H239.151L210.525 44.3306H210.045V85.6509H196.137V20H208.339L236.739 61.2883H237.313V20H251.164ZM262.65 85.6509V52.8254V20H306.21V31.4436H276.558V47.0877H303.317V58.5313H276.558V85.6509H262.65ZM313.06 31.4436V20H367.088V31.4436H346.953V85.6509H333.205V31.4436H313.06ZM62.0751 125.54C61.8678 123.415 60.9633 121.763 59.3615 120.587C57.7597 119.41 55.5831 118.821 52.8412 118.821C50.9756 118.821 49.3926 119.085 48.1111 119.612C46.8297 120.122 45.8403 120.833 45.1525 121.746C44.4835 122.66 44.1537 123.696 44.1537 124.855C44.116 125.821 44.3233 126.664 44.7567 127.385C45.2184 128.105 45.8403 128.728 46.6318 129.255C47.4232 129.765 48.3373 130.212 49.3832 130.599C50.4196 130.967 51.5221 131.284 52.7093 131.547L57.5619 132.707C59.9269 133.233 62.0845 133.936 64.0538 134.814C66.0325 135.692 67.738 136.773 69.1797 138.055C70.6213 139.337 71.7425 140.848 72.534 142.587C73.3443 144.325 73.759 146.319 73.7778 148.567C73.759 151.87 72.9109 154.733 71.2431 157.157C69.5848 159.563 67.1915 161.433 64.0538 162.769C60.9444 164.086 57.1849 164.745 52.7846 164.745C48.4221 164.745 44.6154 164.078 41.3835 162.742C38.1611 161.407 35.6453 159.432 33.8267 156.815C32.0365 154.18 31.0942 150.922 31 147.039H42.0619C42.1938 148.848 42.7121 150.359 43.6261 151.571C44.5589 152.766 45.7932 153.67 47.3479 154.285C48.912 154.882 50.6834 155.18 52.6527 155.18C54.5937 155.18 56.2709 154.9 57.6937 154.338C59.1353 153.776 60.2566 152.994 61.0481 151.993C61.8396 150.991 62.2353 149.841 62.2353 148.541C62.2353 147.33 61.8773 146.31 61.1517 145.485C60.4545 144.659 59.4086 143.957 58.0423 143.378C56.6855 142.797 55.0178 142.271 53.0485 141.796L47.1595 140.321C42.599 139.214 38.9997 137.485 36.3614 135.13C33.7231 132.776 32.4134 129.607 32.4322 125.619C32.4134 122.352 33.2803 119.497 35.0423 117.056C36.8231 114.614 39.2635 112.709 42.3541 111.339C45.454 109.969 48.978 109.284 52.9166 109.284C56.9305 109.284 60.4357 109.969 63.4226 111.339C66.4378 112.709 68.7745 114.614 70.4517 117.056C72.1194 119.497 72.9863 122.326 73.0334 125.54H62.0751ZM99.7365 164.772C95.5624 164.772 91.9725 163.928 88.9573 162.242C85.9704 160.538 83.6619 158.132 82.0413 155.022C80.4206 151.896 79.6197 148.199 79.6197 143.93C79.6197 139.768 80.4206 136.115 82.0413 132.97C83.6619 129.826 85.9422 127.375 88.882 125.619C91.8406 123.862 95.308 122.984 99.2842 122.984C101.96 122.984 104.448 123.415 106.756 124.275C109.084 125.119 111.1 126.392 112.824 128.096C114.567 129.799 115.924 131.942 116.895 134.524C117.865 137.089 118.346 140.092 118.346 143.536V146.618H84.1047V139.662H107.755C107.755 138.046 107.406 136.615 106.7 135.368C106.002 134.12 105.023 133.146 103.769 132.443C102.544 131.723 101.103 131.363 99.4728 131.363C97.7579 131.363 96.2502 131.758 94.9311 132.549C93.6214 133.321 92.6038 134.366 91.8688 135.684C91.1244 136.983 90.7476 138.432 90.7287 140.031V146.644C90.7287 148.647 91.0963 150.377 91.8406 151.835C92.5944 153.292 93.6591 154.417 95.0347 155.207C96.4104 155.998 98.0311 156.392 99.9156 156.392C101.169 156.392 102.309 156.218 103.355 155.866C104.391 155.514 105.277 154.988 106.021 154.285C106.756 153.583 107.322 152.721 107.708 151.703L118.11 152.388C117.583 154.882 116.499 157.06 114.86 158.922C113.239 160.767 111.147 162.206 108.575 163.243C106.021 164.262 103.081 164.772 99.7365 164.772ZM137.247 164.745C134.665 164.745 132.357 164.297 130.331 163.402C128.305 162.488 126.704 161.144 125.526 159.37C124.367 157.578 123.783 155.348 123.783 152.678C123.783 150.43 124.197 148.541 125.026 147.013C125.856 145.485 126.977 144.256 128.409 143.325C129.832 142.394 131.452 141.691 133.262 141.217C135.09 140.743 137.012 140.409 139.019 140.215C141.374 139.97 143.278 139.741 144.719 139.531C146.161 139.302 147.216 138.968 147.866 138.529C148.516 138.09 148.837 137.44 148.837 136.58V136.421C148.837 134.753 148.309 133.462 147.254 132.549C146.217 131.635 144.738 131.178 142.816 131.178C140.8 131.178 139.188 131.626 137.992 132.523C136.795 133.4 136.003 134.507 135.617 135.842L125.215 134.998C125.742 132.539 126.779 130.414 128.324 128.623C129.879 126.814 131.876 125.426 134.317 124.459C136.786 123.476 139.631 122.984 142.872 122.984C145.124 122.984 147.282 123.248 149.346 123.775C151.419 124.301 153.256 125.119 154.858 126.225C156.478 127.332 157.75 128.755 158.683 130.493C159.616 132.215 160.087 134.278 160.087 136.685V163.981H149.421V158.369H149.101C148.45 159.634 147.584 160.749 146.491 161.715C145.398 162.663 144.088 163.41 142.552 163.954C141.026 164.481 139.254 164.745 137.247 164.745ZM140.47 156.999C142.128 156.999 143.588 156.674 144.851 156.024C146.123 155.356 147.112 154.461 147.838 153.336C148.554 152.213 148.922 150.939 148.922 149.516V145.221C148.564 145.45 148.083 145.661 147.471 145.853C146.867 146.029 146.189 146.197 145.435 146.355C144.681 146.495 143.918 146.626 143.165 146.75C142.411 146.855 141.723 146.952 141.101 147.039C139.782 147.233 138.632 147.54 137.643 147.962C136.663 148.383 135.89 148.954 135.353 149.674C134.807 150.377 134.534 151.255 134.534 152.309C134.534 153.837 135.08 155.006 136.192 155.813C137.323 156.603 138.745 156.999 140.47 156.999ZM168.812 163.981V123.511H179.714V130.572H180.138C180.873 128.061 182.117 126.163 183.86 124.882C185.603 123.581 187.61 122.931 189.881 122.931C190.446 122.931 191.049 122.967 191.699 123.037C192.35 123.107 192.924 123.204 193.414 123.327V133.286C192.887 133.128 192.161 132.988 191.228 132.865C190.295 132.742 189.438 132.681 188.665 132.681C187.007 132.681 185.537 133.041 184.227 133.76C182.946 134.463 181.928 135.447 181.165 136.712C180.43 137.976 180.063 139.434 180.063 141.085V163.981H168.812ZM215.67 164.772C211.515 164.772 207.944 163.893 204.947 162.137C201.979 160.362 199.69 157.904 198.088 154.759C196.505 151.615 195.713 147.996 195.713 143.904C195.713 139.759 196.505 136.123 198.107 132.996C199.727 129.852 202.026 127.402 205.004 125.645C207.972 123.872 211.515 122.984 215.614 122.984C219.156 122.984 222.247 123.625 224.904 124.908C227.571 126.19 229.672 127.99 231.217 130.309C232.772 132.628 233.62 135.35 233.78 138.477H223.17C222.869 136.457 222.077 134.832 220.786 133.602C219.524 132.355 217.856 131.732 215.802 131.732C214.059 131.732 212.532 132.206 211.232 133.154C209.951 134.085 208.942 135.447 208.226 137.238C207.501 139.03 207.143 141.199 207.143 143.746C207.143 146.328 207.491 148.524 208.198 150.333C208.914 152.142 209.932 153.521 211.232 154.47C212.532 155.418 214.059 155.892 215.802 155.892C217.083 155.892 218.242 155.629 219.26 155.101C220.296 154.575 221.154 153.81 221.823 152.81C222.501 151.791 222.953 150.57 223.17 149.147H233.78C233.601 152.239 232.762 154.961 231.245 157.315C229.747 159.651 227.684 161.478 225.036 162.795C222.398 164.112 219.279 164.772 215.67 164.772ZM252.229 140.585V163.981H240.979V110.022H251.909V130.651H252.389C253.303 128.263 254.783 126.392 256.818 125.04C258.862 123.669 261.425 122.984 264.506 122.984C267.324 122.984 269.774 123.599 271.865 124.829C273.985 126.041 275.615 127.788 276.784 130.072C277.962 132.337 278.536 135.051 278.527 138.213V163.981H267.277V140.215C267.295 137.722 266.664 135.781 265.373 134.393C264.111 133.005 262.33 132.311 260.04 132.311C258.514 132.311 257.157 132.636 255.979 133.286C254.811 133.936 253.897 134.885 253.228 136.131C252.578 137.361 252.248 138.845 252.229 140.585ZM304.797 163.981V110.022H341.224V119.428H316.226V132.285H339.349V141.691H316.226V154.575H341.327V163.981H304.797ZM361.35 140.585V163.981H350.1V123.511H360.822V130.651H361.294C362.198 128.298 363.696 126.436 365.816 125.066C367.927 123.678 370.49 122.984 373.496 122.984C376.313 122.984 378.763 123.599 380.864 124.829C382.956 126.058 384.586 127.814 385.745 130.098C386.904 132.364 387.488 135.069 387.488 138.213V163.981H376.237V140.215C376.256 137.738 375.625 135.807 374.344 134.419C373.053 133.014 371.291 132.311 369.029 132.311C367.522 132.311 366.184 132.636 365.025 133.286C363.875 133.936 362.98 134.885 362.33 136.131C361.689 137.361 361.369 138.845 361.35 140.585ZM414.624 180C410.978 180 407.85 179.5 405.249 178.498C402.658 177.515 400.604 176.171 399.068 174.467C397.542 172.763 396.543 170.849 396.09 168.724L406.493 167.326C406.804 168.135 407.313 168.89 407.991 169.593C408.679 170.295 409.583 170.857 410.714 171.279C411.854 171.718 413.249 171.938 414.888 171.938C417.329 171.938 419.345 171.341 420.928 170.146C422.53 168.969 423.331 166.994 423.331 164.218V156.815H422.86C422.37 157.938 421.625 159.001 420.645 160.002C419.656 161.004 418.384 161.82 416.839 162.453C415.293 163.085 413.447 163.402 411.298 163.402C408.255 163.402 405.475 162.698 402.978 161.293C400.5 159.871 398.521 157.701 397.042 154.785C395.582 151.853 394.847 148.146 394.847 143.667C394.847 139.082 395.591 135.253 397.089 132.179C398.587 129.105 400.576 126.804 403.054 125.276C405.56 123.748 408.293 122.984 411.27 122.984C413.541 122.984 415.444 123.37 416.971 124.143C418.506 124.898 419.731 125.847 420.664 126.989C421.616 128.113 422.351 129.22 422.86 130.309H423.284V123.511H434.449V164.376C434.449 167.819 433.601 170.699 431.915 173.018C430.228 175.336 427.882 177.076 424.895 178.235C421.917 179.411 418.497 180 414.624 180ZM414.86 154.97C416.669 154.97 418.205 154.522 419.449 153.626C420.721 152.713 421.691 151.413 422.36 149.727C423.048 148.023 423.387 145.986 423.387 143.615C423.387 141.243 423.048 139.188 422.379 137.449C421.719 135.692 420.749 134.332 419.477 133.365C418.214 132.399 416.669 131.916 414.86 131.916C413.013 131.916 411.449 132.416 410.187 133.418C408.914 134.401 407.963 135.771 407.313 137.528C406.653 139.284 406.333 141.314 406.333 143.615C406.333 145.95 406.653 147.97 407.313 149.674C407.982 151.361 408.933 152.669 410.187 153.6C411.449 154.514 413.013 154.97 414.86 154.97ZM443.401 163.981V123.511H454.651V163.981H443.401ZM449.045 118.295C447.377 118.295 445.945 117.741 444.748 116.635C443.57 115.51 442.976 114.167 442.976 112.604C442.976 111.058 443.57 109.731 444.748 108.625C445.945 107.501 447.377 106.938 449.045 106.938C450.722 106.938 452.144 107.501 453.322 108.625C454.519 109.731 455.122 111.058 455.122 112.604C455.122 114.167 454.519 115.51 453.322 116.635C452.144 117.741 450.722 118.295 449.045 118.295ZM474.9 140.585V163.981H463.659V123.511H474.372V130.651H474.853C475.748 128.298 477.255 126.436 479.366 125.066C481.476 123.678 484.039 122.984 487.045 122.984C489.862 122.984 492.322 123.599 494.414 124.829C496.505 126.058 498.135 127.814 499.294 130.098C500.463 132.364 501.037 135.069 501.037 138.213V163.981H489.797V140.215C489.806 137.738 489.175 135.807 487.893 134.419C486.612 133.014 484.84 132.311 482.588 132.311C481.071 132.311 479.733 132.636 478.574 133.286C477.425 133.936 476.53 134.885 475.88 136.131C475.248 137.361 474.918 138.845 474.9 140.585ZM528.381 164.772C524.217 164.772 520.627 163.928 517.612 162.242C514.625 160.538 512.316 158.132 510.695 155.022C509.075 151.896 508.264 148.199 508.264 143.93C508.264 139.768 509.075 136.115 510.695 132.97C512.316 129.826 514.596 127.375 517.536 125.619C520.495 123.862 523.962 122.984 527.938 122.984C530.614 122.984 533.102 123.415 535.41 124.275C537.728 125.119 539.754 126.392 541.478 128.096C543.222 129.799 544.578 131.942 545.549 134.524C546.51 137.089 547 140.092 547 143.536V146.618H512.759V139.662H536.409C536.409 138.046 536.061 136.615 535.354 135.368C534.647 134.12 533.677 133.146 532.424 132.443C531.189 131.723 529.757 131.363 528.117 131.363C526.412 131.363 524.904 131.758 523.576 132.549C522.276 133.321 521.258 134.366 520.514 135.684C519.779 136.983 519.402 138.432 519.383 140.031V146.644C519.383 148.647 519.75 150.377 520.495 151.835C521.249 153.292 522.313 154.417 523.689 155.207C525.055 155.998 526.685 156.392 528.57 156.392C529.823 156.392 530.963 156.218 531.999 155.866C533.036 155.514 533.931 154.988 534.666 154.285C535.41 153.583 535.966 152.721 536.362 151.703L546.764 152.388C546.237 154.882 545.153 157.06 543.514 158.922C541.893 160.767 539.801 162.206 537.229 163.243C534.675 164.262 531.726 164.772 528.381 164.772Z" fill="white"/>
</svg>
