<svg width="439" height="439" viewBox="0 0 439 439" fill="none" xmlns="http://www.w3.org/2000/svg">
<g clip-path="url(#clip0_2_76)">
<path fill-rule="evenodd" clip-rule="evenodd" d="M339.756 438.334H98.5229C44.0774 438.334 5.22889e-05 394.201 5.22889e-05 339.811V98.5226C-0.0554477 44.1328 44.0774 0 98.5229 0H339.756C394.201 0 438.279 44.1328 438.279 98.5226V339.756C438.279 394.201 394.201 438.334 339.756 438.334Z" fill="#1126CA"/>
<path d="M336.786 108.585C313.262 85.1373 282.862 69.7939 250.006 64.786C217.149 59.778 183.55 65.3666 154.093 80.7392C124.636 96.1118 100.856 120.467 86.212 150.264C71.567 180.06 66.8207 213.745 72.663 246.421C78.505 279.097 94.631 309.06 118.697 331.954C142.762 354.848 173.512 369.479 206.477 373.721C239.441 377.962 272.9 371.593 301.991 355.539C331.081 339.484 354.286 314.582 368.231 284.453L318.836 261.688C309.091 282.797 292.416 299.947 271.575 310.295C250.733 320.644 226.977 323.57 204.242 318.588C181.507 313.606 161.16 301.016 146.572 282.903C131.983 264.791 124.03 242.244 124.03 219C124.03 195.755 131.983 173.208 146.572 155.096C161.16 136.984 181.507 124.394 204.242 119.412C226.977 114.43 250.733 117.356 271.575 127.704C292.416 138.053 309.091 155.203 318.836 176.312L368.231 153.533C360.482 136.818 349.837 121.602 336.786 108.585Z" fill="white"/>
<path d="M259.865 185.728C252.659 178.665 243.348 174.044 233.285 172.537C223.222 171.03 212.932 172.715 203.911 177.347C194.89 181.979 187.608 189.318 183.123 198.295C178.639 207.272 177.186 217.42 178.976 227.264C180.766 237.108 185.705 246.134 193.075 253.031C200.446 259.928 209.863 264.336 219.959 265.614C230.055 266.893 240.302 264.974 249.212 260.138C258.121 255.302 265.229 247.8 269.5 238.724L318.748 261.056C324.994 247.885 328.231 233.531 328.231 219C328.231 204.47 324.994 190.116 318.748 176.945L269.5 199.277C267.126 194.238 263.864 189.651 259.865 185.728Z" fill="white"/>
</g>
<defs>
<clipPath id="clip0_2_76">
<rect width="438.28" height="438.28" fill="white"/>
</clipPath>
</defs>
</svg>
