<svg width="439" height="439" viewBox="0 0 439 439" fill="none" xmlns="http://www.w3.org/2000/svg">
<g clip-path="url(#clip0_2_87)">
<path fill-rule="evenodd" clip-rule="evenodd" d="M339.76 438.334H98.5201C44.0801 438.334 6.10965e-05 394.201 6.10965e-05 339.811V98.5226C-0.0599389 44.1328 44.0801 0 98.5201 0H339.76C394.2 0 438.28 44.1328 438.28 98.5226V339.756C438.28 394.201 394.2 438.334 339.76 438.334Z" fill="white"/>
<path d="M123.23 185.46C121.3 105.625 159.37 36.971 210.53 27.9811C261.7 18.9912 308.71 72.7068 318.32 151.201H332.32L305.98 179.691L276.06 151.201H290.05C281.78 88.8528 248.19 47.7946 212.37 56.203C176.54 64.6115 150.15 119.803 151.32 183.806L123.23 185.46Z" fill="#D4CEB9"/>
<path d="M87 165.781C87 144.313 104.44 126.87 125.91 126.87H313.09C323.42 126.87 333.3 130.984 340.59 138.275C347.89 145.565 352 155.449 352 165.781V321.427C352 342.94 334.56 360.338 313.09 360.338H125.91C104.44 360.338 87 342.94 87 321.427V165.781Z" fill="#8EC3C3"/>
<path d="M162.01 223.477C162.01 191.722 187.77 166.005 219.48 166.005C234.73 166.005 249.35 172.043 260.13 182.822C270.91 193.6 276.99 208.226 276.99 223.477C276.99 255.232 251.23 280.95 219.52 280.95C187.77 280.95 162.01 255.232 162.01 223.477Z" stroke="white" stroke-width="20" stroke-miterlimit="10"/>
<path d="M219.52 355.016V210.82" stroke="white" stroke-width="20" stroke-miterlimit="10" stroke-linecap="round" stroke-linejoin="round"/>
<path d="M218 241.815L198.32 231.662" stroke="white" stroke-width="20" stroke-miterlimit="10" stroke-linecap="round" stroke-linejoin="round"/>
<path d="M222.43 251.789L242.11 241.636" stroke="white" stroke-width="20" stroke-miterlimit="10" stroke-linecap="round" stroke-linejoin="round"/>
<path d="M114.15 403.454V410.118H92.8999V378.81H100.86V403.454H114.15Z" fill="#666666"/>
<path d="M128.33 410.118V378.81H136.29V410.118H128.33Z" fill="#666666"/>
<path d="M160.89 385.071V392.317H174.93V398.579H160.89V410.118H152.93V378.81H176.14V385.071H160.89Z" fill="#666666"/>
<path d="M198.28 385.071V391.288H213.22V397.55H198.28V403.856H215.32V410.118H190.32V378.81H214.83V385.071H198.28Z" fill="#666666"/>
<path d="M245.64 378.81C252.66 378.81 257.14 381.851 257.14 386.637C257.14 389.947 255.08 392.585 251.77 393.525C255.71 394.285 258.21 397.371 258.21 401.441C258.21 406.763 253.56 410.118 246.18 410.118H230.84V378.81H245.64ZM238.75 391.333H245.19C247.52 391.333 249 390.081 249 388.068C249 386.055 247.52 384.893 245.19 384.893H238.75V391.333ZM238.75 403.99H245.19C248.15 403.99 249.98 402.693 249.98 400.457C249.98 398.355 248.15 397.058 245.19 397.058H238.75V403.99Z" fill="#666666"/>
<path d="M304.99 394.419C304.99 403.543 297.75 410.476 288.04 410.476C278.38 410.476 271.14 403.588 271.14 394.419C271.14 385.295 278.38 378.542 288.04 378.542C297.75 378.542 304.99 385.34 304.99 394.419ZM279.28 394.464C279.28 399.741 283.35 403.812 288.13 403.812C292.96 403.812 296.81 399.741 296.81 394.464C296.81 389.186 292.96 385.206 288.13 385.206C283.3 385.206 279.28 389.186 279.28 394.464Z" fill="#666666"/>
<path d="M348.96 410.118H339.43L332.68 400.144L325.92 410.118H316.67L327.85 394.106L317.38 378.81H326.64L332.68 387.934L338.72 378.81H348.06L337.73 393.748L348.96 410.118Z" fill="#666666"/>
</g>
<defs>
<clipPath id="clip0_2_87">
<rect width="438.28" height="438.28" fill="white"/>
</clipPath>
</defs>
</svg>
