<svg width="578" height="200" viewBox="0 0 578 200" fill="none" xmlns="http://www.w3.org/2000/svg">
<path d="M40 46H61.617L84.45 101.704H85.421L108.254 46H129.872V128.909H112.869V74.945H112.181L90.725 128.504H79.147L57.691 74.743H57.002V128.909H40V46ZM154.637 152.227C152.451 152.227 150.4 152.052 148.484 151.701C146.595 151.377 145.029 150.959 143.788 150.446L147.674 137.572C149.698 138.193 151.52 138.53 153.139 138.584C154.786 138.638 156.203 138.261 157.39 137.451C158.605 136.641 159.59 135.265 160.345 133.322L161.357 130.69L139.051 66.727H157.188L170.061 112.392H170.709L183.704 66.727H201.962L177.793 135.629C176.633 138.976 175.054 141.891 173.057 144.373C171.087 146.883 168.59 148.813 165.568 150.163C162.545 151.539 158.901 152.227 154.637 152.227ZM211.111 128.909V46H228.64V114.457H264.184V128.909H211.111ZM303.564 130.123C297.276 130.123 291.837 128.788 287.249 126.116C282.688 123.417 279.166 119.665 276.683 114.861C274.2 110.03 272.959 104.43 272.959 98.061C272.959 91.638 274.2 86.024 276.683 81.22C279.166 76.389 282.688 72.638 287.249 69.966C291.837 67.267 297.276 65.918 303.564 65.918C309.852 65.918 315.277 67.267 319.838 69.966C324.426 72.638 327.962 76.389 330.445 81.22C332.926 86.024 334.166 91.638 334.166 98.061C334.166 104.43 332.926 110.03 330.445 114.861C327.962 119.665 324.426 123.417 319.838 126.116C315.277 128.788 309.852 130.123 303.564 130.123ZM303.645 116.764C306.506 116.764 308.894 115.954 310.81 114.335C312.727 112.689 314.17 110.449 315.142 107.615C316.141 104.781 316.64 101.556 316.64 97.94C316.64 94.323 316.141 91.098 315.142 88.264C314.17 85.43 312.727 83.19 310.81 81.544C308.894 79.898 306.506 79.074 303.645 79.074C300.757 79.074 298.328 79.898 296.358 81.544C294.415 83.19 292.944 85.43 291.945 88.264C290.974 91.098 290.488 94.323 290.488 97.94C290.488 101.556 290.974 104.781 291.945 107.615C292.944 110.449 294.415 112.689 296.358 114.335C298.328 115.954 300.757 116.764 303.645 116.764ZM373.396 153.523C367.806 153.523 363.016 152.753 359.026 151.215C355.056 149.704 351.896 147.639 349.556 145.021C347.206 142.403 345.676 139.462 344.976 136.196L360.926 134.05C361.416 135.292 362.186 136.452 363.236 137.532C364.286 138.611 365.676 139.475 367.406 140.123C369.156 140.797 371.296 141.135 373.806 141.135C377.556 141.135 380.646 140.217 383.076 138.382C385.526 136.574 386.756 133.538 386.756 129.273V117.898H386.026C385.276 119.625 384.136 121.258 382.626 122.796C381.116 124.334 379.176 125.589 376.796 126.561C374.426 127.533 371.586 128.018 368.296 128.018C363.626 128.018 359.376 126.939 355.546 124.78C351.736 122.594 348.706 119.261 346.436 114.78C344.196 110.273 343.076 104.579 343.076 97.697C343.076 90.653 344.226 84.769 346.516 80.046C348.806 75.323 351.856 71.788 355.666 69.44C359.496 67.092 363.696 65.918 368.256 65.918C371.736 65.918 374.656 66.511 376.996 67.699C379.346 68.859 381.236 70.317 382.666 72.071C384.126 73.798 385.246 75.498 386.026 77.172H386.676V66.727H403.796V129.516C403.796 134.806 402.506 139.232 399.916 142.795C397.326 146.357 393.736 149.029 389.146 150.81C384.586 152.619 379.336 153.523 373.396 153.523ZM373.766 115.064C376.546 115.064 378.886 114.376 380.806 112.999C382.746 111.596 384.236 109.599 385.256 107.008C386.316 104.39 386.836 101.259 386.836 97.616C386.836 93.972 386.326 90.815 385.296 88.143C384.276 85.444 382.786 83.352 380.846 81.868C378.906 80.383 376.546 79.641 373.766 79.641C370.926 79.641 368.536 80.41 366.596 81.949C364.656 83.46 363.186 85.565 362.186 88.264C361.186 90.963 360.686 94.08 360.686 97.616C360.686 101.205 361.186 104.309 362.186 106.927C363.206 109.518 364.676 111.528 366.596 112.959C368.536 114.362 370.926 115.064 373.766 115.064ZM453.436 46V128.909H435.906V62.638H435.416L416.426 74.54V58.995L436.956 46H453.436ZM471.886 114.335V100.53L506.496 46H518.396V65.108H511.356L489.536 99.64V100.288H538.716V114.335H471.886ZM511.676 128.909V110.125L511.996 104.012V46H528.436V128.909H511.676Z" fill="white"/>
</svg>
