<svg width="439" height="439" viewBox="0 0 439 439" fill="none" xmlns="http://www.w3.org/2000/svg">
<g clip-path="url(#clip0_2_86)">
<path fill-rule="evenodd" clip-rule="evenodd" d="M339.76 438.334H98.52C44.08 438.334 -6.09738e-05 394.201 -6.09738e-05 339.811V98.5226C-0.060061 44.1328 44.08 0 98.52 0H339.76C394.2 0 438.28 44.1328 438.28 98.5226V339.756C438.28 394.201 394.2 438.334 339.76 438.334Z" fill="#1126CA"/>
<path fill-rule="evenodd" clip-rule="evenodd" d="M181 130.5C181 157.838 158.84 180 131.5 180C120.06 180 109.52 176.117 101.14 169.596C114.41 138.42 139.74 113.613 171.28 101.031C177.39 109.264 181 119.46 181 130.5ZM266.5 101.342C251.68 95.3184 235.48 92 218.5 92C201.82 92 185.88 95.2044 171.28 101.031C162.26 88.8768 147.8 81 131.5 81C104.16 81 82 103.162 82 130.5C82 146.395 89.49 160.539 101.14 169.596C94.61 184.924 91 201.79 91 219.5C91 236.921 94.4899 253.526 100.82 268.652C89.3599 277.718 82 291.75 82 307.5C82 334.838 104.16 357 131.5 357C147.45 357 161.64 349.453 170.7 337.735C185.46 343.71 201.6 347 218.5 347C235.7 347 252.1 343.596 267.07 337.424C276.11 349.32 290.41 357 306.5 357C333.84 357 356 334.838 356 307.5C356 291.406 348.32 277.107 336.42 268.066C342.6 253.097 346 236.696 346 219.5C346 202.012 342.48 185.346 336.11 170.173C348.18 161.146 356 146.736 356 130.5C356 103.162 333.84 81 306.5 81C290.06 81 275.5 89.0112 266.5 101.342ZM266.5 101.342C297.86 114.097 323.01 138.981 336.11 170.173C327.85 176.345 317.6 180 306.5 180C279.16 180 257 157.838 257 130.5C257 119.599 260.52 109.52 266.5 101.342ZM336.42 268.066C328.11 261.749 317.74 258 306.5 258C279.16 258 257 280.162 257 307.5C257 318.744 260.75 329.113 267.07 337.424C298.42 324.496 323.5 299.424 336.42 268.066ZM170.7 337.735C177.16 329.373 181 318.885 181 307.5C181 280.162 158.84 258 131.5 258C119.91 258 109.25 261.982 100.82 268.652C113.92 299.989 139.18 324.98 170.7 337.735Z" fill="white"/>
</g>
<defs>
<clipPath id="clip0_2_86">
<rect width="438.28" height="438.28" fill="white"/>
</clipPath>
</defs>
</svg>
