<svg width="55" height="55" viewBox="0 0 55 55" fill="none" xmlns="http://www.w3.org/2000/svg">
<g clip-path="url(#clip0_148_686)">
<path fill-rule="evenodd" clip-rule="evenodd" d="M43.2068 54.4519H13.2389C6.47608 54.4519 1.00025 48.9695 1.00025 42.2129V12.2389C0.992798 5.48238 6.47608 0 13.2389 0H43.2068C49.9696 0 55.4454 5.48238 55.4454 12.2389V42.2061C55.4454 48.9695 49.9696 54.4519 43.2068 54.4519Z" fill="#D4CEB9"/>
<path fill-rule="evenodd" clip-rule="evenodd" d="M23.4845 16.2111C23.4845 19.6072 20.7317 22.3603 17.3354 22.3603C15.9143 22.3603 14.6049 21.8779 13.5639 21.0678C15.2124 17.195 18.359 14.1133 22.2771 12.5504C23.0361 13.5731 23.4845 14.8397 23.4845 16.2111ZM34.1057 12.589C32.2647 11.8407 30.2523 11.4285 28.1429 11.4285C26.0709 11.4285 24.0907 11.8265 22.2771 12.5504C21.1566 11.0405 19.3603 10.062 17.3354 10.062C13.9391 10.062 11.1863 12.8151 11.1863 16.2111C11.1863 18.1857 12.1167 19.9427 13.5639 21.0678C12.7528 22.9719 12.3043 25.0671 12.3043 27.2671C12.3043 29.4312 12.7378 31.494 13.5242 33.373C12.1006 34.4992 11.1863 36.2424 11.1863 38.1989C11.1863 41.5949 13.9391 44.348 17.3354 44.348C19.3168 44.348 21.0795 43.4105 22.205 41.9548C24.0386 42.6971 26.0435 43.1058 28.1429 43.1058C30.2796 43.1058 32.3169 42.6829 34.1765 41.9162C35.2995 43.394 37.0759 44.348 39.0747 44.348C42.471 44.348 45.2238 41.5949 45.2238 38.1989C45.2238 36.1996 44.2698 34.4233 42.7915 33.3002C43.5592 31.4407 43.9816 29.4033 43.9816 27.2671C43.9816 25.0947 43.5443 23.0244 42.753 21.1395C44.2524 20.0181 45.2238 18.228 45.2238 16.2111C45.2238 12.8151 42.471 10.062 39.0747 10.062C37.0325 10.062 35.2238 11.0572 34.1057 12.589ZM34.1057 12.589C38.0014 14.1735 41.1257 17.2647 42.753 21.1395C41.7269 21.9062 40.4536 22.3603 39.0747 22.3603C35.6784 22.3603 32.9256 19.6072 32.9256 16.2111C32.9256 14.857 33.3629 13.6049 34.1057 12.589ZM42.7915 33.3002C41.7592 32.5155 40.471 32.0498 39.0747 32.0498C35.6784 32.0498 32.9256 34.8028 32.9256 38.1989C32.9256 39.5957 33.3914 40.8838 34.1765 41.9162C38.071 40.3102 41.1865 37.1957 42.7915 33.3002ZM22.205 41.9548C23.0075 40.9161 23.4845 39.6132 23.4845 38.1989C23.4845 34.8028 20.7317 32.0498 17.3354 32.0498C15.8956 32.0498 14.5714 32.5444 13.5242 33.373C15.1515 37.2658 18.2894 40.3703 22.205 41.9548Z" fill="white"/>
</g>
<defs>
<clipPath id="clip0_148_686">
<rect width="54.4452" height="54.4452" fill="white"/>
</clipPath>
</defs>
</svg>
